<svg width="38" height="10" viewBox="0 0 38 10" fill="none" xmlns="http://www.w3.org/2000/svg">
<path d="M0.87 8C0.77 8 0.72 7.95 0.72 7.85V1.55C0.72 1.45 0.77 1.4 0.87 1.4H3.6C3.692 1.4 3.772 1.434 3.84 1.502L4.578 2.24H4.8L5.538 1.502C5.606 1.434 5.686 1.4 5.778 1.4H7.08C7.172 1.4 7.252 1.434 7.32 1.502L8.52 2.702C8.588 2.766 8.622 2.846 8.622 2.942V7.85C8.622 7.95 8.572 8 8.472 8H6.87C6.77 8 6.72 7.95 6.72 7.85V3.152C6.72 2.984 6.636 2.9 6.468 2.9H5.622V7.85C5.622 7.95 5.572 8 5.472 8H3.87C3.77 8 3.72 7.95 3.72 7.85V3.152C3.72 2.984 3.636 2.9 3.468 2.9H2.622V7.85C2.622 7.95 2.572 8 2.472 8H0.87ZM12.7127 8C12.6727 8 12.6287 7.994 12.5807 7.982C12.5367 7.97 12.4947 7.96 12.4547 7.952L11.3867 7.688L10.1627 7.28C10.0427 7.24 9.98269 7.124 9.98269 6.932V2.942C9.98269 2.846 10.0167 2.766 10.0847 2.702L11.2847 1.502C11.3527 1.434 11.4327 1.4 11.5247 1.4H13.4447C13.5367 1.4 13.6167 1.434 13.6847 1.502L14.8847 2.702C14.9527 2.766 14.9867 2.846 14.9867 2.942V5.402H11.7647L11.7227 6.2L12.5747 6.482L14.1047 6.59C14.1727 6.602 14.2067 6.648 14.2067 6.728V7.85C14.2067 7.95 14.1567 8 14.0567 8H12.7127ZM12.4727 4.46H12.5867C12.7827 4.46 12.9387 4.386 13.0547 4.238C13.1747 4.09 13.2347 3.89 13.2347 3.638V3.518C13.2347 3.27 13.1747 3.072 13.0547 2.924C12.9387 2.776 12.7827 2.702 12.5867 2.702H12.4667C12.2747 2.702 12.1207 2.776 12.0047 2.924C11.8927 3.072 11.8367 3.27 11.8367 3.518V3.638C11.8367 3.89 11.8927 4.09 12.0047 4.238C12.1207 4.386 12.2767 4.46 12.4727 4.46ZM18.9236 8C18.8836 8 18.8396 7.994 18.7916 7.982C18.7476 7.97 18.7056 7.96 18.6656 7.952L17.5976 7.688L16.3736 7.28C16.2536 7.24 16.1936 7.124 16.1936 6.932V2.942C16.1936 2.846 16.2276 2.766 16.2956 2.702L17.4956 1.502C17.5636 1.434 17.6436 1.4 17.7356 1.4H19.6556C19.7476 1.4 19.8276 1.434 19.8956 1.502L21.0956 2.702C21.1636 2.766 21.1976 2.846 21.1976 2.942V5.402H17.9756L17.9336 6.2L18.7856 6.482L20.3156 6.59C20.3836 6.602 20.4176 6.648 20.4176 6.728V7.85C20.4176 7.95 20.3676 8 20.2676 8H18.9236ZM18.6836 4.46H18.7976C18.9936 4.46 19.1496 4.386 19.2656 4.238C19.3856 4.09 19.4456 3.89 19.4456 3.638V3.518C19.4456 3.27 19.3856 3.072 19.2656 2.924C19.1496 2.776 18.9936 2.702 18.7976 2.702H18.6776C18.4856 2.702 18.3316 2.776 18.2156 2.924C18.1036 3.072 18.0476 3.27 18.0476 3.518V3.638C18.0476 3.89 18.1036 4.09 18.2156 4.238C18.3316 4.386 18.4876 4.46 18.6836 4.46ZM23.8266 8C23.7346 8 23.6546 7.966 23.5866 7.898L22.5846 6.902C22.5206 6.834 22.4886 6.754 22.4886 6.662V2.798H22.2366C22.1366 2.798 22.0866 2.748 22.0866 2.648V1.55C22.0866 1.45 22.1366 1.4 22.2366 1.4H22.4886V0.65C22.4886 0.55 22.5386 0.5 22.6386 0.5H24.2346C24.3346 0.5 24.3846 0.55 24.3846 0.65V1.4H24.9666C25.0666 1.4 25.1166 1.45 25.1166 1.55V2.648C25.1166 2.748 25.0666 2.798 24.9666 2.798H24.3846V6.002C24.3846 6.078 24.4086 6.14 24.4566 6.188L25.0446 6.782C25.0846 6.818 25.1046 6.878 25.1046 6.962V7.85C25.1046 7.95 25.0546 8 24.9546 8H23.8266ZM27.7386 8C27.6426 8 27.5626 7.966 27.4986 7.898L26.2986 6.698C26.2306 6.634 26.1966 6.554 26.1966 6.458V1.55C26.1966 1.45 26.2466 1.4 26.3466 1.4H27.9486C28.0486 1.4 28.0986 1.45 28.0986 1.55V6.218C28.0986 6.406 28.1906 6.5 28.3746 6.5H29.1966V1.55C29.1966 1.45 29.2466 1.4 29.3466 1.4H30.9486C31.0486 1.4 31.0986 1.45 31.0986 1.55V7.85C31.0986 7.95 31.0486 8 30.9486 8H27.7386ZM32.6513 9.8C32.5513 9.8 32.5013 9.75 32.5013 9.65V1.55C32.5013 1.45 32.5513 1.4 32.6513 1.4H33.8933C33.9653 1.4 34.0353 1.434 34.1033 1.502L34.4033 1.802L34.7033 1.502C34.7673 1.434 34.8473 1.4 34.9433 1.4H35.8613C35.9533 1.4 36.0333 1.434 36.1013 1.502L37.3013 2.702C37.3693 2.766 37.4033 2.846 37.4033 2.942V6.458C37.4033 6.554 37.3693 6.634 37.3013 6.698L36.1013 7.898C36.0333 7.966 35.9533 8 35.8613 8H34.9433C34.8473 8 34.7673 7.966 34.7033 7.898L34.4033 7.598V9.65C34.4033 9.75 34.3533 9.8 34.2533 9.8H32.6513ZM34.4033 6.602H35.1593C35.2913 6.602 35.3813 6.576 35.4293 6.524C35.4773 6.472 35.5013 6.38 35.5013 6.248V3.152C35.5013 3.02 35.4773 2.928 35.4293 2.876C35.3813 2.824 35.2913 2.798 35.1593 2.798H34.7393C34.6113 2.798 34.5233 2.824 34.4753 2.876C34.4273 2.928 34.4033 3.02 34.4033 3.152V6.602Z" fill="#035BFF"/>
</svg>
