<svg width="9" height="7" viewBox="0 0 9 7" fill="none" xmlns="http://www.w3.org/2000/svg">
<path d="M0.87 7C0.77 7 0.72 6.95 0.72 6.85V0.55C0.72 0.45 0.77 0.4 0.87 0.4H3.6C3.692 0.4 3.772 0.434 3.84 0.502L4.578 1.24H4.8L5.538 0.502C5.606 0.434 5.686 0.4 5.778 0.4H7.08C7.172 0.4 7.252 0.434 7.32 0.502L8.52 1.702C8.588 1.766 8.622 1.846 8.622 1.942V6.85C8.622 6.95 8.572 7 8.472 7H6.87C6.77 7 6.72 6.95 6.72 6.85V2.152C6.72 1.984 6.636 1.9 6.468 1.9H5.622V6.85C5.622 6.95 5.572 7 5.472 7H3.87C3.77 7 3.72 6.95 3.72 6.85V2.152C3.72 1.984 3.636 1.9 3.468 1.9H2.622V6.85C2.622 6.95 2.572 7 2.472 7H0.87Z" fill="#035BFF"/>
</svg>
